<?xml version="1.0" encoding="UTF-8"?>
<svg version="1.1" xmlns="http://www.w3.org/2000/svg" width="512" height="512">
<path d="M0 0 C3.39309487 0.68091257 6.78982623 1.34235613 10.1875 2 C11.083479 2.17523193 11.97945801 2.35046387 12.90258789 2.53100586 C19.55436413 3.80281831 26.19601747 4.73551202 32.93432617 5.40429688 C37.90768021 5.90768021 37.90768021 5.90768021 39 7 C40.54220527 24.4951811 33.19989106 38.61533813 26 54 C25.42606714 55.23167654 24.85234695 56.4634522 24.27880859 57.6953125 C16.92202944 73.48627674 9.44009614 89.21311024 1.8125 104.875 C-4.71071787 118.27270862 -11.07226763 131.7369935 -17.29003906 145.27978516 C-18.48058744 147.8725215 -19.6757388 150.46307617 -20.87402344 153.05224609 C-46.60685253 207.65448811 -46.60685253 207.65448811 -65 265 C-65.29390625 266.21300781 -65.5878125 267.42601562 -65.890625 268.67578125 C-67.7933896 277.06100367 -68.98444103 285.46930466 -70 294 C-71.98 294 -73.96 294 -76 294 C-77.1554434 298.75087344 -78.27592367 303.50868129 -79.37060547 308.27392578 C-79.80162053 310.14076601 -80.23843185 312.00627483 -80.68017578 313.87060547 C-86.02974213 334.52392827 -86.02974213 334.52392827 -84.23046875 355.4375 C-83.10611389 357.16783616 -83.10611389 357.16783616 -81.0546875 357.609375 C-79.03645833 357.73958333 -77.01822917 357.86979167 -75 358 C-76.60134623 363.92693393 -79.62342999 368.83945642 -82.75 374.0625 C-83.31912109 375.01680908 -83.88824219 375.97111816 -84.47460938 376.9543457 C-88.68580802 383.95023963 -93.02565926 390.85701591 -97.5 397.6875 C-98.07459961 398.57767822 -98.64919922 399.46785645 -99.24121094 400.38500977 C-104.69672128 408.58187406 -104.69672128 408.58187406 -109 410 C-111.4921875 409.70703125 -111.4921875 409.70703125 -114 408 C-115.97572969 405.37832893 -117.53146685 402.55282326 -119.125 399.6875 C-122.6298019 393.64884544 -126.24957022 388.11246803 -130.875 382.875 C-139.89969154 372.61859616 -144.03834847 364.09885412 -143.1953125 350.17822266 C-141.66816417 333.14670093 -137.40490799 316.47206075 -133 300 C-160.29966841 305.6687836 -188.73907414 314.98528159 -213.62890625 327.81640625 C-216 329 -216 329 -218 329 C-218.39316406 330.22074219 -218.78632813 331.44148438 -219.19140625 332.69921875 C-220.83175592 337.62026777 -222.68935706 342.44298222 -224.56689453 347.27758789 C-229.60161277 360.26256925 -234.24066808 373.34416348 -238.625 386.5625 C-238.88852264 387.35588776 -239.15204529 388.14927551 -239.42355347 388.96670532 C-240.1732298 391.22818148 -240.91969509 393.49067757 -241.6640625 395.75390625 C-241.88648117 396.42871033 -242.10889984 397.1035144 -242.33805847 397.79876709 C-244.04597637 403.02807829 -245.12807294 407.24187275 -245.0625 412.75 C-245.05347656 413.73484375 -245.04445313 414.7196875 -245.03515625 415.734375 C-245.02355469 416.48203125 -245.01195312 417.2296875 -245 418 C-243.68 418.66 -242.36 419.32 -241 420 C-241.58387004 424.0870903 -243.73708854 426.5561706 -246.25 429.75 C-246.68747559 430.3078418 -247.12495117 430.86568359 -247.57568359 431.44042969 C-249.04137565 433.30102588 -250.51912003 435.15147264 -252 437 C-252.53334961 437.66773438 -253.06669922 438.33546875 -253.61621094 439.0234375 C-272.03535947 462.03380573 -272.03535947 462.03380573 -277 464 C-280 464.125 -280 464.125 -283 463 C-286.84216039 456.68523543 -288.23846712 450.40165407 -289.5625 443.1875 C-289.77084473 442.08889648 -289.97918945 440.99029297 -290.19384766 439.85839844 C-290.80949856 436.57460901 -291.405512 433.28767574 -292 430 C-292.1748291 429.07461426 -292.3496582 428.14922852 -292.52978516 427.19580078 C-297.05043449 403.21337295 -290.00463053 384.44585727 -281.92773438 362.10009766 C-281.12977689 359.88857466 -280.33801661 357.6749062 -279.546875 355.4609375 C-279.30523621 354.79838959 -279.06359741 354.13584167 -278.81463623 353.45321655 C-277.46055095 349.65385265 -276.53769363 345.9972668 -276 342 C-276.59611084 341.91024902 -277.19222168 341.82049805 -277.80639648 341.72802734 C-289.84814362 339.88709008 -301.77017205 337.75534271 -313.625 334.9375 C-314.67228271 334.69241699 -315.71956543 334.44733398 -316.79858398 334.19482422 C-321.90227594 332.94900505 -326.43688792 331.62417879 -331 329 C-331.3154778 325.9503813 -331.41475821 324.51530565 -329.453125 322.078125 C-318.9210199 313.33871864 -308.51971521 305.78356146 -296.375 299.4375 C-295.14293098 298.78631644 -293.91091663 298.13502943 -292.67895508 297.48364258 C-260.14725652 280.38649814 -260.14725652 280.38649814 -251 283 C-250.67 283.66 -250.34 284.32 -250 285 C-244.39224074 276.70465105 -238.91661736 268.33641761 -233.5625 259.875 C-211.37406133 224.87480147 -188.54681413 190.14299296 -164.62597656 156.30224609 C-163.03263827 154.04621305 -161.4486831 151.78387729 -159.8671875 149.51953125 C-152.42235122 138.88164735 -144.74722181 128.41917835 -137 118 C-136.34040283 117.11223877 -136.34040283 117.11223877 -135.66748047 116.20654297 C-129.8641134 108.4051023 -123.95746992 100.68404736 -118 93 C-117.55897949 92.42991211 -117.11795898 91.85982422 -116.66357422 91.27246094 C-111.24606339 84.2794794 -105.7267077 77.39923702 -99.97583008 70.67700195 C-97.16892466 67.39538097 -94.44189273 64.0649684 -91.75 60.6875 C-44.69971507 3.0237405 -44.69971507 3.0237405 -14.58984375 -1.84765625 C-9.57185334 -2.14283216 -4.88929708 -1.0364891 0 0 Z M-40 76 C-42.86590749 78.84087268 -45.72827697 81.68526136 -48.58764648 84.53271484 C-49.55742273 85.49751459 -50.5281007 86.46140895 -51.49975586 87.42431641 C-56.66515533 92.54442872 -61.72865907 97.68639197 -66.4597168 103.21240234 C-68.85106745 105.98771847 -71.36916354 108.64098492 -73.875 111.3125 C-78.33826707 116.10995628 -82.56974429 121.03162373 -86.671875 126.14453125 C-88.8136929 128.77149246 -91.01039572 131.3329853 -93.23730469 133.88720703 C-99.90831665 141.55090347 -106.09762481 149.51839234 -112.20800781 157.6328125 C-114.12243825 160.1617386 -116.05537383 162.67568026 -117.9921875 165.1875 C-118.67893555 166.08073975 -119.36568359 166.97397949 -120.07324219 167.89428711 C-121.38109765 169.59509057 -122.69138956 171.29402522 -124.00488281 172.99047852 C-133.87327612 185.86993775 -142.75012586 199.50699141 -151.75 213 C-152.22056824 213.70534882 -152.69113647 214.41069763 -153.17596436 215.13742065 C-159.44164 224.54042831 -165.62472812 233.98753355 -171.625 243.5625 C-172.51977051 244.9865918 -172.51977051 244.9865918 -173.43261719 246.43945312 C-176.58075684 251.51258162 -179.42303996 256.61352499 -182 262 C-172.9378717 259.82324785 -163.97646778 257.3456208 -155.02001953 254.77587891 C-152.76808442 254.13018532 -150.51497902 253.48870806 -148.26171875 252.84765625 C-143.83536624 251.58460119 -139.41583754 250.29931224 -135 249 C-134.25397522 248.78131256 -133.50795044 248.56262512 -132.73931885 248.33731079 C-130.54988415 247.69113275 -128.3643571 247.03318271 -126.1796875 246.37109375 C-125.52385681 246.17810699 -124.86802612 245.98512024 -124.19232178 245.7862854 C-117.34781578 243.68068854 -113.09759756 240.6460967 -109.52270508 234.43212891 C-105.94320067 227.24400363 -103.02625684 219.98842084 -100.3125 212.4375 C-86.62349573 175.48375218 -69.21255166 139.81294366 -51.8359375 104.4765625 C-51.20145439 103.18348679 -51.20145439 103.18348679 -50.55415344 101.86428833 C-48.51226188 97.70305949 -46.46280805 93.54600536 -44.39624023 89.39697266 C-43.66621068 87.9158346 -42.93645867 86.43455969 -42.20703125 84.953125 C-41.86533905 84.27488678 -41.52364685 83.59664856 -41.17160034 82.89785767 C-40.38679484 81.29364167 -39.68438338 79.64955995 -39 78 C-39.33 77.34 -39.66 76.68 -40 76 Z " fill="#000000" transform="translate(401,17)"/>
</svg>
