<svg width="1024" height="1016" viewBox="0 0 1024 1016" fill="none" xmlns="http://www.w3.org/2000/svg">
<ellipse cx="512" cy="508" rx="512" ry="508" fill="black"/>
<path d="M418.379 557.848C451.484 547.301 476.094 540.123 492.207 536.314C505.977 533.092 516.084 530.016 522.529 527.086C528.975 523.863 534.102 518.883 537.91 512.145C541.719 505.113 546.26 493.834 551.533 478.307C563.838 442.857 597.529 368.883 652.607 256.383C653.779 255.211 654.365 253.893 654.365 252.428L653.926 250.67C571.309 329.186 492.5 431.285 417.5 556.969L418.379 557.848ZM262.812 882.164C257.832 882.164 254.023 876.744 251.387 865.904C248.457 855.357 245.088 838.805 241.279 816.246C239.521 804.82 238.496 797.496 238.203 794.273C238.203 783.727 240.986 770.836 246.553 755.602C261.787 714.586 269.404 692.32 269.404 688.805C269.404 686.754 268.818 685.289 267.646 684.41C207.881 674.449 177.998 666.539 177.998 660.68C177.998 658.922 179.609 656.871 182.832 654.527L211.836 631.236C262.227 603.404 292.402 589.488 302.363 589.488C305.586 589.488 307.49 591.1 308.076 594.322C308.076 596.373 308.369 597.838 308.955 598.717C337.959 553.307 369.014 505.406 402.119 455.016C547.432 238.219 646.016 129.82 697.871 129.82C700.801 129.82 703.584 130.26 706.221 131.139C731.416 137.584 749.873 140.807 761.592 140.807C767.744 141.1 772.139 141.686 774.775 142.564C777.412 143.15 778.73 145.201 778.73 148.717C778.73 151.939 777.852 156.627 776.094 162.779L776.533 164.537C776.533 169.811 772.432 181.383 764.229 199.254C756.318 216.832 746.211 238.512 733.906 264.293C709.883 312.926 682.197 372.105 650.85 441.832C619.795 511.266 603.242 563.854 601.191 599.596C601.191 604.869 600.166 607.506 598.115 607.506L593.281 607.066C591.523 607.066 590.205 608.385 589.326 611.021C579.072 649.986 573.945 676.793 573.945 691.441C573.945 697.887 574.531 702.721 575.703 705.943C576.875 708.873 578.34 710.777 580.098 711.656C581.855 712.535 583.613 712.975 585.371 712.975L590.645 712.535C591.523 712.535 591.963 712.975 591.963 713.854C591.963 714.732 591.084 716.637 589.326 719.566C582.295 730.699 576.143 740.807 570.869 749.889C562.666 763.658 555.781 774.498 550.215 782.408C544.941 790.318 540.4 794.273 536.592 794.273C534.248 794.273 532.197 792.516 530.439 789C519.893 770.25 510.664 756.92 502.754 749.01C497.188 742.857 492.646 736.852 489.131 730.992C485.908 725.133 484.297 716.93 484.297 706.383C484.297 688.805 489.863 659.361 500.996 618.053C500.996 616.881 499.824 616.295 497.48 616.295C487.812 616.295 462.617 623.766 421.895 638.707C383.809 652.77 363.301 661.705 360.371 665.514C329.902 741.979 314.668 787.389 314.668 801.744C314.668 808.775 316.865 812.291 321.26 812.291C323.311 812.291 324.336 812.584 324.336 813.17C324.336 813.756 323.311 815.367 321.26 818.004C300.459 844.957 286.543 862.389 279.512 870.299C272.48 878.209 266.914 882.164 262.812 882.164Z" fill="white"/>
</svg>
